<svg xmlns="http://www.w3.org/2000/svg" width="375" height="667" viewBox="0 0 375 667">
  <rect width="375" height="667" fill="#000"/>
  <!-- Status bar -->
  <rect width="375" height="44" fill="#000"/>
  <text x="187" y="30" fill="#fff" font-family="system-ui" font-size="14" text-anchor="middle" font-weight="600">9:41</text>
  <!-- App bar -->
  <rect y="44" width="375" height="56" fill="#000"/>
  <text x="16" y="78" fill="#fff" font-family="system-ui" font-size="22" font-weight="800">Instagram</text>
  <circle cx="320" cy="72" r="10" fill="none" stroke="#fff" stroke-width="2"/>
  <circle cx="350" cy="72" r="10" fill="none" stroke="#fff" stroke-width="2"/>
  <!-- Stories -->
  <rect y="100" width="375" height="90" fill="#000"/>
  <circle cx="45" cy="140" r="28" fill="none" stroke="#E1306C" stroke-width="3"/>
  <circle cx="45" cy="140" r="24" fill="#333"/>
  <text x="45" y="178" fill="#aaa" font-family="system-ui" font-size="10" text-anchor="middle">You</text>
  <circle cx="115" cy="140" r="28" fill="none" stroke="#F77737" stroke-width="3"/>
  <circle cx="115" cy="140" r="24" fill="#444"/>
  <text x="115" y="178" fill="#aaa" font-family="system-ui" font-size="10" text-anchor="middle">User1</text>
  <circle cx="185" cy="140" r="28" fill="none" stroke="#C13584" stroke-width="3"/>
  <circle cx="185" cy="140" r="24" fill="#555"/>
  <text x="185" y="178" fill="#aaa" font-family="system-ui" font-size="10" text-anchor="middle">User2</text>
  <circle cx="255" cy="140" r="28" fill="none" stroke="#E1306C" stroke-width="3"/>
  <circle cx="255" cy="140" r="24" fill="#666"/>
  <text x="255" y="178" fill="#aaa" font-family="system-ui" font-size="10" text-anchor="middle">User3</text>
  <circle cx="325" cy="140" r="28" fill="none" stroke="#F77737" stroke-width="3"/>
  <circle cx="325" cy="140" r="24" fill="#777"/>
  <text x="325" y="178" fill="#aaa" font-family="system-ui" font-size="10" text-anchor="middle">User4</text>
  <!-- Post -->
  <rect y="195" width="375" height="50" fill="#000"/>
  <circle cx="30" cy="220" r="16" fill="#444"/>
  <text x="55" y="218" fill="#fff" font-family="system-ui" font-size="13" font-weight="600">username</text>
  <text x="55" y="234" fill="#aaa" font-family="system-ui" font-size="10">Toshkent, Uzbekistan</text>
  <rect y="245" width="375" height="300" fill="#1a1a1a"/>
  <text x="187" y="400" fill="#555" font-family="system-ui" font-size="48">📷</text>
  <!-- Actions -->
  <rect y="545" width="375" height="45" fill="#000"/>
  <text x="20" y="572" fill="#fff" font-family="system-ui" font-size="22">♡</text>
  <text x="60" y="572" fill="#fff" font-family="system-ui" font-size="20">💬</text>
  <text x="100" y="572" fill="#fff" font-family="system-ui" font-size="20">📤</text>
  <text x="345" y="572" fill="#fff" font-family="system-ui" font-size="20">🔖</text>
  <text x="20" y="600" fill="#fff" font-family="system-ui" font-size="13" font-weight="600">1,234 likes</text>
  <text x="20" y="618" fill="#aaa" font-family="system-ui" font-size="12"><tspan font-weight="600" fill="#fff">username</tspan> Beautiful day! #flutter</text>
  <!-- Bottom nav -->
  <rect y="630" width="375" height="37" fill="#000"/>
  <text x="47" y="654" fill="#fff" font-family="system-ui" font-size="22">🏠</text>
  <text x="131" y="654" fill="#888" font-family="system-ui" font-size="22">🔍</text>
  <text x="215" y="654" fill="#888" font-family="system-ui" font-size="22">➕</text>
  <text x="299" y="654" fill="#888" font-family="system-ui" font-size="22">🎬</text>
  <text x="338" y="654" fill="#888" font-family="system-ui" font-size="22">👤</text>
</svg>