<svg xmlns="http://www.w3.org/2000/svg" width="375" height="667" viewBox="0 0 375 667">
  <rect width="375" height="667" fill="#111B21"/>
  <rect width="375" height="44" fill="#1F2C34"/>
  <text x="187" y="30" fill="#fff" font-family="system-ui" font-size="14" text-anchor="middle">9:41</text>
  <rect y="44" width="375" height="56" fill="#1F2C34"/>
  <text x="16" y="78" fill="#fff" font-family="system-ui" font-size="20" font-weight="700">WhatsApp</text>
  <text x="310" y="78" fill="#AEBAC1" font-family="system-ui" font-size="20">📷</text>
  <text x="340" y="78" fill="#AEBAC1" font-family="system-ui" font-size="20">🔍</text>
  <!-- Tabs -->
  <rect y="100" width="375" height="40" fill="#1F2C34"/>
  <text x="62" y="126" fill="#00A884" font-family="system-ui" font-size="13" font-weight="600" text-anchor="middle">Chats</text>
  <rect x="42" y="136" width="40" height="3" fill="#00A884" rx="1"/>
  <text x="187" y="126" fill="#AEBAC1" font-family="system-ui" font-size="13" text-anchor="middle">Status</text>
  <text x="312" y="126" fill="#AEBAC1" font-family="system-ui" font-size="13" text-anchor="middle">Calls</text>
  <!-- Chat list -->
  <rect y="140" width="375" height="60" fill="#111B21"/>
  <circle cx="36" cy="170" r="22" fill="#00A884"/>
  <text x="36" y="176" fill="#fff" font-family="system-ui" font-size="14" text-anchor="middle">1</text>
  <text x="68" y="164" fill="#fff" font-family="system-ui" font-size="15" font-weight="500">Olim</text>
  <text x="68" y="182" fill="#8696A0" font-family="system-ui" font-size="12">Salom! Qalaysan? 👋</text>
  <text x="340" y="160" fill="#8696A0" font-family="system-ui" font-size="11">10:30</text>
  <rect x="335" y="172" width="18" height="18" rx="9" fill="#00A884"/>
  <text x="344" y="186" fill="#111B21" font-family="system-ui" font-size="11" text-anchor="middle" font-weight="700">3</text>

  <rect y="200" width="375" height="60" fill="#111B21"/>
  <circle cx="36" cy="230" r="22" fill="#53BDEB"/>
  <text x="36" y="236" fill="#fff" font-family="system-ui" font-size="14" text-anchor="middle">2</text>
  <text x="68" y="224" fill="#fff" font-family="system-ui" font-size="15" font-weight="500">Jasur</text>
  <text x="68" y="242" fill="#8696A0" font-family="system-ui" font-size="12">Rahmat! 😊</text>
  <text x="340" y="220" fill="#8696A0" font-family="system-ui" font-size="11">9:15</text>

  <rect y="260" width="375" height="60" fill="#111B21"/>
  <circle cx="36" cy="290" r="22" fill="#E91E63"/>
  <text x="36" y="296" fill="#fff" font-family="system-ui" font-size="14" text-anchor="middle">3</text>
  <text x="68" y="284" fill="#fff" font-family="system-ui" font-size="15" font-weight="500">Dilshod</text>
  <text x="68" y="302" fill="#8696A0" font-family="system-ui" font-size="12">📸 Photo</text>
  <text x="340" y="280" fill="#8696A0" font-family="system-ui" font-size="11">8:42</text>

  <rect y="320" width="375" height="60" fill="#111B21"/>
  <circle cx="36" cy="350" r="22" fill="#FF9800"/>
  <text x="36" y="356" fill="#fff" font-family="system-ui" font-size="14" text-anchor="middle">4</text>
  <text x="68" y="344" fill="#fff" font-family="system-ui" font-size="15" font-weight="500">Sardor</text>
  <text x="68" y="362" fill="#8696A0" font-family="system-ui" font-size="12">Yaxshi, ko'rishguncha!</text>

  <rect y="380" width="375" height="60" fill="#111B21"/>
  <circle cx="36" cy="410" r="22" fill="#9C27B0"/>
  <text x="36" y="416" fill="#fff" font-family="system-ui" font-size="14" text-anchor="middle">5</text>
  <text x="68" y="404" fill="#fff" font-family="system-ui" font-size="15" font-weight="500">Nodir</text>
  <text x="68" y="422" fill="#8696A0" font-family="system-ui" font-size="12">OK 👍</text>

  <!-- FAB -->
  <rect x="320" y="580" width="56" height="56" rx="16" fill="#00A884"/>
  <text x="348" y="616" fill="#fff" font-family="system-ui" font-size="28" text-anchor="middle">💬</text>
  <!-- Bottom nav -->
  <rect y="630" width="375" height="37" fill="#1F2C34"/>
  <text x="62" y="654" fill="#00A884" font-family="system-ui" font-size="12" text-anchor="middle" font-weight="600">💬 Chats</text>
  <text x="187" y="654" fill="#8696A0" font-family="system-ui" font-size="12" text-anchor="middle">🔄 Status</text>
  <text x="312" y="654" fill="#8696A0" font-family="system-ui" font-size="12" text-anchor="middle">📞 Calls</text>
</svg>